<svg width="22" height="32" viewBox="0 0 22 32" fill="none" xmlns="http://www.w3.org/2000/svg">
<g clip-path="url(#clip0_325_37488)">
<path d="M3.75 15.75L8 14.75L17.2929 5.45708C17.6834 5.06655 17.6834 4.43339 17.2929 4.04286L15.4571 2.20708C15.0666 1.81655 14.4334 1.81655 14.0429 2.20708L4.75 11.5L3.75 15.75Z" stroke="#747488" stroke-width="1.5" stroke-linecap="round" stroke-linejoin="round"/>
<path d="M18.25 15.75H12.75" stroke="#747488" stroke-width="1.5" stroke-linecap="round" stroke-linejoin="round"/>
</g>
<path d="M1.064 28.5C0.936 28.5 0.834667 28.4653 0.76 28.396C0.690667 28.3213 0.656 28.2227 0.656 28.1V23.26C0.656 23.1373 0.690667 23.0413 0.76 22.972C0.834667 22.8973 0.936 22.86 1.064 22.86H4.008C4.13067 22.86 4.224 22.8893 4.288 22.948C4.35733 23.0067 4.392 23.0893 4.392 23.196C4.392 23.3027 4.35733 23.3853 4.288 23.444C4.224 23.4973 4.13067 23.524 4.008 23.524H1.464V25.3H3.848C3.97067 25.3 4.064 25.3293 4.128 25.388C4.19733 25.4467 4.232 25.5293 4.232 25.636C4.232 25.7427 4.19733 25.8253 4.128 25.884C4.064 25.9427 3.97067 25.972 3.848 25.972H1.464V27.836H4.008C4.264 27.836 4.392 27.9453 4.392 28.164C4.392 28.2707 4.35733 28.3533 4.288 28.412C4.224 28.4707 4.13067 28.5 4.008 28.5H1.064ZM8.43169 22.82C8.55435 22.82 8.65302 22.8547 8.72769 22.924C8.80235 22.9933 8.83969 23.0867 8.83969 23.204V28.148C8.83969 28.2707 8.80235 28.3667 8.72769 28.436C8.65835 28.5053 8.56235 28.54 8.43969 28.54C8.31702 28.54 8.21835 28.5053 8.14369 28.436C8.07435 28.3667 8.03969 28.2707 8.03969 28.148V27.828C7.92235 28.0627 7.75169 28.244 7.52769 28.372C7.30369 28.4947 7.04502 28.556 6.75169 28.556C6.41569 28.556 6.11435 28.4707 5.84769 28.3C5.58635 28.1293 5.38102 27.8893 5.23169 27.58C5.08769 27.2707 5.01569 26.916 5.01569 26.516C5.01569 26.1107 5.08769 25.756 5.23169 25.452C5.38102 25.148 5.58635 24.9133 5.84769 24.748C6.10902 24.5827 6.41035 24.5 6.75169 24.5C7.04502 24.5 7.30102 24.564 7.51969 24.692C7.74369 24.8147 7.91435 24.9907 8.03169 25.22V23.188C8.03169 23.076 8.06635 22.988 8.13569 22.924C8.21035 22.8547 8.30902 22.82 8.43169 22.82ZM6.94369 27.916C7.29035 27.916 7.55969 27.796 7.75169 27.556C7.94369 27.316 8.03969 26.9747 8.03969 26.532C8.03969 26.0893 7.94369 25.748 7.75169 25.508C7.56502 25.268 7.29569 25.148 6.94369 25.148C6.59169 25.148 6.31702 25.268 6.11969 25.508C5.92769 25.7427 5.83169 26.0787 5.83169 26.516C5.83169 26.9533 5.93035 27.2973 6.12769 27.548C6.32502 27.7933 6.59702 27.916 6.94369 27.916ZM10.3743 28.54C10.2569 28.54 10.1583 28.508 10.0783 28.444C10.0036 28.38 9.96625 28.284 9.96625 28.156V24.908C9.96625 24.78 10.0036 24.684 10.0783 24.62C10.1583 24.5507 10.2569 24.516 10.3743 24.516C10.4916 24.516 10.5876 24.5507 10.6623 24.62C10.7369 24.684 10.7743 24.78 10.7743 24.908V28.156C10.7743 28.284 10.7369 28.38 10.6623 28.444C10.5876 28.508 10.4916 28.54 10.3743 28.54ZM10.3743 23.732C10.2196 23.732 10.0969 23.6893 10.0063 23.604C9.91558 23.5187 9.87025 23.4067 9.87025 23.268C9.87025 23.1293 9.91558 23.02 10.0063 22.94C10.0969 22.8547 10.2196 22.812 10.3743 22.812C10.5236 22.812 10.6436 22.8547 10.7343 22.94C10.8303 23.02 10.8783 23.1293 10.8783 23.268C10.8783 23.4067 10.8329 23.5187 10.7423 23.604C10.6516 23.6893 10.5289 23.732 10.3743 23.732ZM13.9251 27.924C14.0425 27.9347 14.1251 27.9667 14.1731 28.02C14.2265 28.068 14.2531 28.1373 14.2531 28.228C14.2531 28.3347 14.2105 28.4173 14.1251 28.476C14.0451 28.5293 13.9251 28.5507 13.7651 28.54L13.5491 28.524C13.1171 28.492 12.7945 28.3613 12.5811 28.132C12.3678 27.8973 12.2611 27.5533 12.2611 27.1V25.22H11.7811C11.5465 25.22 11.4291 25.116 11.4291 24.908C11.4291 24.812 11.4585 24.7373 11.5171 24.684C11.5811 24.6253 11.6691 24.596 11.7811 24.596H12.2611V23.772C12.2611 23.6493 12.2958 23.5533 12.3651 23.484C12.4398 23.4147 12.5385 23.38 12.6611 23.38C12.7838 23.38 12.8825 23.4147 12.9571 23.484C13.0318 23.5533 13.0691 23.6493 13.0691 23.772V24.596H13.8611C13.9731 24.596 14.0585 24.6253 14.1171 24.684C14.1811 24.7373 14.2131 24.812 14.2131 24.908C14.2131 25.0093 14.1811 25.0867 14.1171 25.14C14.0585 25.1933 13.9731 25.22 13.8611 25.22H13.0691V27.156C13.0691 27.4067 13.1198 27.5907 13.2211 27.708C13.3278 27.8253 13.4878 27.892 13.7011 27.908L13.9251 27.924ZM16.4734 24.5C16.9908 24.5 17.3748 24.6307 17.6254 24.892C17.8814 25.1533 18.0094 25.5507 18.0094 26.084V28.156C18.0094 28.2787 17.9748 28.3747 17.9054 28.444C17.8361 28.508 17.7401 28.54 17.6174 28.54C17.5001 28.54 17.4068 28.5053 17.3374 28.436C17.2681 28.3667 17.2334 28.2733 17.2334 28.156V27.86C17.1321 28.084 16.9801 28.2573 16.7774 28.38C16.5801 28.4973 16.3481 28.556 16.0814 28.556C15.8254 28.556 15.5908 28.5053 15.3774 28.404C15.1694 28.2973 15.0041 28.1533 14.8814 27.972C14.7588 27.7907 14.6974 27.5853 14.6974 27.356C14.6921 27.068 14.7641 26.844 14.9134 26.684C15.0628 26.5187 15.3054 26.4013 15.6414 26.332C15.9774 26.2573 16.4441 26.22 17.0414 26.22H17.2254V25.988C17.2254 25.6893 17.1641 25.4733 17.0414 25.34C16.9188 25.2067 16.7214 25.14 16.4494 25.14C16.2628 25.14 16.0868 25.164 15.9214 25.212C15.7561 25.26 15.5748 25.3293 15.3774 25.42C15.2334 25.5 15.1321 25.54 15.0734 25.54C14.9934 25.54 14.9268 25.5107 14.8734 25.452C14.8254 25.3933 14.8014 25.3187 14.8014 25.228C14.8014 25.148 14.8228 25.0787 14.8654 25.02C14.9134 24.956 14.9881 24.8947 15.0894 24.836C15.2761 24.7347 15.4948 24.6547 15.7454 24.596C15.9961 24.532 16.2388 24.5 16.4734 24.5ZM16.2254 27.956C16.5188 27.956 16.7588 27.8573 16.9454 27.66C17.1321 27.4573 17.2254 27.1987 17.2254 26.884V26.676H17.0814C16.6654 26.676 16.3454 26.6947 16.1214 26.732C15.8974 26.7693 15.7374 26.8333 15.6414 26.924C15.5454 27.0093 15.4974 27.1347 15.4974 27.3C15.4974 27.492 15.5668 27.6493 15.7054 27.772C15.8441 27.8947 16.0174 27.956 16.2254 27.956ZM21.1627 24.516C21.4187 24.5 21.5467 24.6093 21.5467 24.844C21.5467 24.9613 21.5174 25.0493 21.4587 25.108C21.4 25.1667 21.2987 25.2013 21.1547 25.212L20.9147 25.236C20.5787 25.268 20.328 25.3853 20.1627 25.588C20.0027 25.7907 19.9227 26.036 19.9227 26.324V28.156C19.9227 28.284 19.8854 28.38 19.8107 28.444C19.736 28.508 19.64 28.54 19.5227 28.54C19.4054 28.54 19.3067 28.508 19.2267 28.444C19.152 28.38 19.1147 28.284 19.1147 28.156V24.9C19.1147 24.7773 19.152 24.684 19.2267 24.62C19.3067 24.5507 19.4054 24.516 19.5227 24.516C19.6294 24.516 19.7174 24.5507 19.7867 24.62C19.8614 24.684 19.8987 24.7747 19.8987 24.892V25.276C20.0054 25.0413 20.16 24.8627 20.3627 24.74C20.5654 24.6173 20.7947 24.5453 21.0507 24.524L21.1627 24.516Z" fill="#747488"/>
<defs>
<clipPath id="clip0_325_37488">
<rect width="16" height="16" fill="white" transform="translate(3 0.5)"/>
</clipPath>
</defs>
</svg>
