<svg width="25" height="31" viewBox="0 0 25 31" fill="none" xmlns="http://www.w3.org/2000/svg">
<path d="M6.75 3.75L7.59115 13.4233C7.68102 14.4568 8.54622 15.25 9.58363 15.25H14.4164C15.4538 15.25 16.319 14.4568 16.4088 13.4233L17.25 3.75" stroke="#AE1100" stroke-width="1.5" stroke-linecap="round" stroke-linejoin="round"/>
<path d="M9.75 3.5V2.75C9.75 1.64543 10.6454 0.75 11.75 0.75H12.25C13.3546 0.75 14.25 1.64543 14.25 2.75V3.5" stroke="#AE1100" stroke-width="1.5" stroke-linecap="round" stroke-linejoin="round"/>
<path d="M5 3.75H19" stroke="#AE1100" stroke-width="1.5" stroke-linecap="round" stroke-linejoin="round"/>
<path d="M1.064 28C0.936 28 0.834667 27.9653 0.76 27.896C0.690667 27.8213 0.656 27.7227 0.656 27.6V22.76C0.656 22.6373 0.690667 22.5413 0.76 22.472C0.834667 22.3973 0.936 22.36 1.064 22.36H4.008C4.13067 22.36 4.224 22.3893 4.288 22.448C4.35733 22.5067 4.392 22.5893 4.392 22.696C4.392 22.8027 4.35733 22.8853 4.288 22.944C4.224 22.9973 4.13067 23.024 4.008 23.024H1.464V24.8H3.848C3.97067 24.8 4.064 24.8293 4.128 24.888C4.19733 24.9467 4.232 25.0293 4.232 25.136C4.232 25.2427 4.19733 25.3253 4.128 25.384C4.064 25.4427 3.97067 25.472 3.848 25.472H1.464V27.336H4.008C4.264 27.336 4.392 27.4453 4.392 27.664C4.392 27.7707 4.35733 27.8533 4.288 27.912C4.224 27.9707 4.13067 28 4.008 28H1.064ZM8.52769 27.392C8.60769 27.472 8.64769 27.5653 8.64769 27.672C8.64769 27.7733 8.61035 27.8613 8.53569 27.936C8.46635 28.0053 8.38102 28.04 8.27969 28.04C8.17835 28.04 8.08502 27.9947 7.99969 27.904L6.77569 26.528L5.55969 27.904C5.47435 27.9947 5.38102 28.04 5.27969 28.04C5.17835 28.04 5.09035 28.0027 5.01569 27.928C4.94635 27.8533 4.91169 27.7653 4.91169 27.664C4.91169 27.5627 4.94902 27.472 5.02369 27.392L6.28769 26L5.08769 24.664C5.00769 24.5733 4.96769 24.4827 4.96769 24.392C4.96769 24.2907 5.00502 24.2053 5.07969 24.136C5.15435 24.0613 5.23969 24.024 5.33569 24.024C5.43702 24.024 5.53035 24.0693 5.61569 24.16L6.77569 25.472L7.93569 24.16C8.02102 24.0693 8.11702 24.024 8.22369 24.024C8.31969 24.024 8.40502 24.0613 8.47969 24.136C8.55435 24.2053 8.59169 24.2907 8.59169 24.392C8.59169 24.4933 8.55169 24.584 8.47169 24.664L7.27169 26L8.52769 27.392ZM11.0367 28.056C10.658 28.056 10.3247 27.9733 10.0367 27.808C9.75402 27.6427 9.53269 27.408 9.37269 27.104C9.21802 26.8 9.14069 26.448 9.14069 26.048C9.14069 25.6427 9.22069 25.2853 9.38069 24.976C9.54602 24.6667 9.77535 24.4267 10.0687 24.256C10.362 24.0853 10.698 24 11.0767 24C11.2794 24 11.482 24.0293 11.6847 24.088C11.8927 24.1467 12.0767 24.2267 12.2367 24.328C12.4074 24.4453 12.4927 24.5813 12.4927 24.736C12.4927 24.8267 12.4687 24.904 12.4207 24.968C12.3727 25.0267 12.3114 25.056 12.2367 25.056C12.1887 25.056 12.1407 25.0453 12.0927 25.024C12.0447 24.9973 11.9834 24.96 11.9087 24.912C11.7754 24.8267 11.65 24.7627 11.5327 24.72C11.4207 24.672 11.2847 24.648 11.1247 24.648C10.762 24.648 10.4794 24.7707 10.2767 25.016C10.0794 25.2613 9.98069 25.6027 9.98069 26.04C9.98069 26.4773 10.0794 26.816 10.2767 27.056C10.474 27.2907 10.754 27.408 11.1167 27.408C11.2767 27.408 11.418 27.384 11.5407 27.336C11.6634 27.288 11.7887 27.224 11.9167 27.144C11.9754 27.1067 12.034 27.0747 12.0927 27.048C12.1514 27.0213 12.2047 27.008 12.2527 27.008C12.3274 27.008 12.3887 27.04 12.4367 27.104C12.4847 27.1627 12.5087 27.2373 12.5087 27.328C12.5087 27.4027 12.4874 27.472 12.4447 27.536C12.4074 27.5947 12.3407 27.656 12.2447 27.72C12.0847 27.8267 11.898 27.9093 11.6847 27.968C11.4714 28.0267 11.2554 28.056 11.0367 28.056ZM13.6399 28.04C13.5225 28.04 13.4239 28.008 13.3439 27.944C13.2692 27.88 13.2319 27.784 13.2319 27.656V22.712C13.2319 22.584 13.2692 22.488 13.3439 22.424C13.4239 22.3547 13.5225 22.32 13.6399 22.32C13.7572 22.32 13.8532 22.3547 13.9279 22.424C14.0025 22.488 14.0399 22.584 14.0399 22.712V27.656C14.0399 27.784 14.0025 27.88 13.9279 27.944C13.8532 28.008 13.7572 28.04 13.6399 28.04ZM18.1934 24.016C18.316 24.016 18.412 24.0507 18.4814 24.12C18.556 24.1893 18.5934 24.2853 18.5934 24.408V27.664C18.5934 27.776 18.556 27.8667 18.4814 27.936C18.4067 28.0053 18.308 28.04 18.1854 28.04C18.0734 28.04 17.9827 28.008 17.9134 27.944C17.844 27.8747 17.8094 27.784 17.8094 27.672V27.368C17.6867 27.592 17.516 27.7627 17.2974 27.88C17.084 27.9973 16.844 28.056 16.5774 28.056C15.628 28.056 15.1534 27.5333 15.1534 26.488V24.408C15.1534 24.2853 15.188 24.1893 15.2574 24.12C15.332 24.0507 15.4334 24.016 15.5614 24.016C15.684 24.016 15.78 24.0507 15.8494 24.12C15.924 24.1893 15.9614 24.2853 15.9614 24.408V26.48C15.9614 26.7947 16.0254 27.0267 16.1534 27.176C16.2814 27.3253 16.4787 27.4 16.7454 27.4C17.06 27.4 17.3107 27.2987 17.4974 27.096C17.6894 26.8933 17.7854 26.624 17.7854 26.288V24.408C17.7854 24.2907 17.8227 24.1973 17.8974 24.128C17.972 24.0533 18.0707 24.016 18.1934 24.016ZM20.1321 28.04C20.0147 28.04 19.9161 28.008 19.8361 27.944C19.7614 27.88 19.7241 27.784 19.7241 27.656V24.408C19.7241 24.28 19.7614 24.184 19.8361 24.12C19.9161 24.0507 20.0147 24.016 20.1321 24.016C20.2494 24.016 20.3454 24.0507 20.4201 24.12C20.4947 24.184 20.5321 24.28 20.5321 24.408V27.656C20.5321 27.784 20.4947 27.88 20.4201 27.944C20.3454 28.008 20.2494 28.04 20.1321 28.04ZM20.1321 23.232C19.9774 23.232 19.8547 23.1893 19.7641 23.104C19.6734 23.0187 19.6281 22.9067 19.6281 22.768C19.6281 22.6293 19.6734 22.52 19.7641 22.44C19.8547 22.3547 19.9774 22.312 20.1321 22.312C20.2814 22.312 20.4014 22.3547 20.4921 22.44C20.5881 22.52 20.6361 22.6293 20.6361 22.768C20.6361 22.9067 20.5907 23.0187 20.5001 23.104C20.4094 23.1893 20.2867 23.232 20.1321 23.232ZM23.7096 24.016C23.9656 24 24.0936 24.1093 24.0936 24.344C24.0936 24.4613 24.0642 24.5493 24.0056 24.608C23.9469 24.6667 23.8456 24.7013 23.7016 24.712L23.4616 24.736C23.1256 24.768 22.8749 24.8853 22.7096 25.088C22.5496 25.2907 22.4696 25.536 22.4696 25.824V27.656C22.4696 27.784 22.4322 27.88 22.3576 27.944C22.2829 28.008 22.1869 28.04 22.0696 28.04C21.9522 28.04 21.8536 28.008 21.7736 27.944C21.6989 27.88 21.6616 27.784 21.6616 27.656V24.4C21.6616 24.2773 21.6989 24.184 21.7736 24.12C21.8536 24.0507 21.9522 24.016 22.0696 24.016C22.1762 24.016 22.2642 24.0507 22.3336 24.12C22.4082 24.184 22.4456 24.2747 22.4456 24.392V24.776C22.5522 24.5413 22.7069 24.3627 22.9096 24.24C23.1122 24.1173 23.3416 24.0453 23.5976 24.024L23.7096 24.016Z" fill="#AE1100"/>
</svg>
