<svg width="17" height="30" viewBox="0 0 17 30" fill="none" xmlns="http://www.w3.org/2000/svg">
<g clip-path="url(#clip0_325_37150)">
<path d="M1.25 8.5C1.25 4.49594 4.49594 1.25 8.5 1.25C12.5041 1.25 15.75 4.49594 15.75 8.5C15.75 12.5041 12.5041 15.75 8.5 15.75C4.49594 15.75 1.25 12.5041 1.25 8.5Z" stroke="#747488" stroke-width="1.5" stroke-linecap="round" stroke-linejoin="round"/>
<path d="M8.50093 9.49998C7.94863 9.50077 7.50029 9.05372 7.49949 8.50142C7.4987 7.94912 7.94575 7.50078 8.49805 7.49998C9.05035 7.49918 9.49869 7.94623 9.49949 8.49853C9.50029 9.05083 9.05323 9.49918 8.50093 9.49998Z" fill="#747488"/>
<path d="M12.5009 9.49424C11.9487 9.49504 11.5003 9.04798 11.4995 8.49568C11.4987 7.94338 11.9458 7.49504 12.498 7.49424C13.0503 7.49344 13.4987 7.9405 13.4995 8.4928C13.5003 9.0451 13.0532 9.49344 12.5009 9.49424Z" fill="#747488"/>
<path d="M4.50093 9.50584C3.94863 9.50663 3.50029 9.05958 3.49949 8.50728C3.4987 7.95498 3.94575 7.50663 4.49805 7.50584C5.05035 7.50504 5.49869 7.95209 5.49949 8.50439C5.50029 9.05669 5.05323 9.50504 4.50093 9.50584Z" fill="#747488"/>
</g>
<path d="M5.664 22.82C5.78133 22.82 5.87733 22.86 5.952 22.94C6.02667 23.0147 6.064 23.1133 6.064 23.236V28.148C6.064 28.2707 6.02933 28.3667 5.96 28.436C5.896 28.5053 5.80533 28.54 5.688 28.54C5.576 28.54 5.488 28.5053 5.424 28.436C5.36 28.3667 5.328 28.2707 5.328 28.148V24.428L3.76 27.412C3.65867 27.5987 3.528 27.692 3.368 27.692C3.208 27.692 3.07733 27.5987 2.976 27.412L1.4 24.46V28.148C1.4 28.2707 1.368 28.3667 1.304 28.436C1.24 28.5053 1.14933 28.54 1.032 28.54C0.92 28.54 0.829333 28.5053 0.76 28.436C0.696 28.3613 0.664 28.2653 0.664 28.148V23.236C0.664 23.1133 0.701333 23.0147 0.776 22.94C0.850667 22.86 0.946667 22.82 1.064 22.82C1.22933 22.82 1.36267 22.916 1.464 23.108L3.376 26.764L5.272 23.108C5.37333 22.916 5.504 22.82 5.664 22.82ZM8.92656 24.5C9.4439 24.5 9.8279 24.6307 10.0786 24.892C10.3346 25.1533 10.4626 25.5507 10.4626 26.084V28.156C10.4626 28.2787 10.4279 28.3747 10.3586 28.444C10.2892 28.508 10.1932 28.54 10.0706 28.54C9.95323 28.54 9.8599 28.5053 9.79056 28.436C9.72123 28.3667 9.68656 28.2733 9.68656 28.156V27.86C9.58523 28.084 9.43323 28.2573 9.23056 28.38C9.03323 28.4973 8.80123 28.556 8.53456 28.556C8.27856 28.556 8.0439 28.5053 7.83056 28.404C7.62256 28.2973 7.45723 28.1533 7.33456 27.972C7.2119 27.7907 7.15056 27.5853 7.15056 27.356C7.14523 27.068 7.21723 26.844 7.36656 26.684C7.5159 26.5187 7.75856 26.4013 8.09456 26.332C8.43056 26.2573 8.89723 26.22 9.49456 26.22H9.67856V25.988C9.67856 25.6893 9.61723 25.4733 9.49456 25.34C9.3719 25.2067 9.17456 25.14 8.90256 25.14C8.7159 25.14 8.5399 25.164 8.37456 25.212C8.20923 25.26 8.0279 25.3293 7.83056 25.42C7.68656 25.5 7.58523 25.54 7.52656 25.54C7.44656 25.54 7.3799 25.5107 7.32656 25.452C7.27856 25.3933 7.25456 25.3187 7.25456 25.228C7.25456 25.148 7.2759 25.0787 7.31856 25.02C7.36656 24.956 7.44123 24.8947 7.54256 24.836C7.72923 24.7347 7.9479 24.6547 8.19856 24.596C8.44923 24.532 8.6919 24.5 8.92656 24.5ZM8.67856 27.956C8.9719 27.956 9.2119 27.8573 9.39856 27.66C9.58523 27.4573 9.67856 27.1987 9.67856 26.884V26.676H9.53456C9.11856 26.676 8.79856 26.6947 8.57456 26.732C8.35056 26.7693 8.19056 26.8333 8.09456 26.924C7.99856 27.0093 7.95056 27.1347 7.95056 27.3C7.95056 27.492 8.0199 27.6493 8.15856 27.772C8.29723 27.8947 8.47056 27.956 8.67856 27.956ZM11.9758 28.54C11.8585 28.54 11.7598 28.508 11.6798 28.444C11.6051 28.38 11.5678 28.284 11.5678 28.156V24.908C11.5678 24.78 11.6051 24.684 11.6798 24.62C11.7598 24.5507 11.8585 24.516 11.9758 24.516C12.0931 24.516 12.1891 24.5507 12.2638 24.62C12.3385 24.684 12.3758 24.78 12.3758 24.908V28.156C12.3758 28.284 12.3385 28.38 12.2638 28.444C12.1891 28.508 12.0931 28.54 11.9758 28.54ZM11.9758 23.732C11.8211 23.732 11.6985 23.6893 11.6078 23.604C11.5171 23.5187 11.4718 23.4067 11.4718 23.268C11.4718 23.1293 11.5171 23.02 11.6078 22.94C11.6985 22.8547 11.8211 22.812 11.9758 22.812C12.1251 22.812 12.2451 22.8547 12.3358 22.94C12.4318 23.02 12.4798 23.1293 12.4798 23.268C12.4798 23.4067 12.4345 23.5187 12.3438 23.604C12.2531 23.6893 12.1305 23.732 11.9758 23.732ZM14.8653 28.556C14.3213 28.556 13.876 28.444 13.5293 28.22C13.4333 28.1613 13.364 28.1 13.3213 28.036C13.284 27.972 13.2653 27.9 13.2653 27.82C13.2653 27.7347 13.2893 27.6627 13.3373 27.604C13.3853 27.5453 13.4466 27.516 13.5213 27.516C13.5906 27.516 13.7 27.5587 13.8493 27.644C14.0093 27.7293 14.164 27.7987 14.3133 27.852C14.468 27.9053 14.66 27.932 14.8893 27.932C15.1453 27.932 15.3453 27.8867 15.4893 27.796C15.6333 27.7053 15.7053 27.5773 15.7053 27.412C15.7053 27.3053 15.676 27.22 15.6173 27.156C15.564 27.092 15.468 27.036 15.3293 26.988C15.1906 26.9347 14.9853 26.8787 14.7133 26.82C14.244 26.7187 13.9053 26.5827 13.6973 26.412C13.4946 26.236 13.3933 25.9987 13.3933 25.7C13.3933 25.4707 13.46 25.2653 13.5933 25.084C13.7266 24.8973 13.9106 24.7533 14.1453 24.652C14.38 24.5507 14.6466 24.5 14.9453 24.5C15.1586 24.5 15.3666 24.5293 15.5693 24.588C15.772 24.6413 15.9506 24.7213 16.1053 24.828C16.2813 24.9453 16.3693 25.0813 16.3693 25.236C16.3693 25.3213 16.3426 25.3933 16.2893 25.452C16.2413 25.5107 16.1826 25.54 16.1133 25.54C16.0653 25.54 16.0173 25.5293 15.9693 25.508C15.9213 25.4867 15.8573 25.452 15.7773 25.404C15.6333 25.3187 15.4973 25.252 15.3693 25.204C15.2466 25.156 15.092 25.132 14.9053 25.132C14.6813 25.132 14.5 25.18 14.3613 25.276C14.228 25.372 14.1613 25.5027 14.1613 25.668C14.1613 25.8173 14.2226 25.9347 14.3453 26.02C14.4733 26.1 14.7106 26.1773 15.0573 26.252C15.4146 26.3267 15.6946 26.412 15.8973 26.508C16.1 26.604 16.244 26.724 16.3293 26.868C16.42 27.0067 16.4653 27.1853 16.4653 27.404C16.4653 27.7507 16.3186 28.0307 16.0253 28.244C15.7373 28.452 15.3506 28.556 14.8653 28.556Z" fill="#747488"/>
<defs>
<clipPath id="clip0_325_37150">
<rect width="16" height="16" fill="white" transform="translate(0.5 0.5)"/>
</clipPath>
</defs>
</svg>
