<svg width="40" height="40" viewBox="0 0 40 40" fill="none" xmlns="http://www.w3.org/2000/svg">
<rect width="40" height="40" rx="10" fill="white"/>
<g clip-path="url(#clip0_325_36088)">
<path d="M9.4541 12.8694H13.0905" stroke="#DA0175" stroke-width="1.5" stroke-linecap="round" stroke-linejoin="round"/>
<path d="M9.4541 27.4781H13.0905" stroke="#DA0175" stroke-width="1.5" stroke-linecap="round" stroke-linejoin="round"/>
<path d="M21.0908 12.8694H30.5454" stroke="#DA0175" stroke-width="1.5" stroke-linecap="round" stroke-linejoin="round"/>
<path d="M21.0908 27.4781H30.5454" stroke="#DA0175" stroke-width="1.5" stroke-linecap="round" stroke-linejoin="round"/>
<path d="M9.4541 20.1738H20.3632" stroke="#DA0175" stroke-width="1.5" stroke-linecap="round" stroke-linejoin="round"/>
<path d="M28.3633 20.1738H30.5451" stroke="#DA0175" stroke-width="1.5" stroke-linecap="round" stroke-linejoin="round"/>
<path d="M17.0911 15.9998C18.8986 15.9998 20.3638 14.5983 20.3638 12.8694C20.3638 11.1405 18.8986 9.73895 17.0911 9.73895C15.2836 9.73895 13.8184 11.1405 13.8184 12.8694C13.8184 14.5983 15.2836 15.9998 17.0911 15.9998Z" stroke="#DA0175" stroke-width="1.5" stroke-linecap="round" stroke-linejoin="round"/>
<path d="M17.0911 30.6085C18.8986 30.6085 20.3638 29.207 20.3638 27.4781C20.3638 25.7492 18.8986 24.3477 17.0911 24.3477C15.2836 24.3477 13.8184 25.7492 13.8184 27.4781C13.8184 29.207 15.2836 30.6085 17.0911 30.6085Z" stroke="#DA0175" stroke-width="1.5" stroke-linecap="round" stroke-linejoin="round"/>
<path d="M24.3635 23.3042C26.171 23.3042 27.6363 21.9027 27.6363 20.1738C27.6363 18.4449 26.171 17.0433 24.3635 17.0433C22.5561 17.0433 21.0908 18.4449 21.0908 20.1738C21.0908 21.9027 22.5561 23.3042 24.3635 23.3042Z" stroke="#DA0175" stroke-width="1.5" stroke-linecap="round" stroke-linejoin="round"/>
</g>
<defs>
<clipPath id="clip0_325_36088">
<rect width="24" height="24" fill="white" transform="translate(8 8)"/>
</clipPath>
</defs>
</svg>
