<svg width="35" height="38" viewBox="0 0 35 38" fill="none" xmlns="http://www.w3.org/2000/svg">
<path d="M16.75 20.25H13.25C12.1454 20.25 11.25 19.3546 11.25 18.25V7.75C11.25 6.64543 12.1454 5.75 13.25 5.75H19.5L23.75 10V12.25" stroke="#DA0175" stroke-width="1.5" stroke-linecap="round" stroke-linejoin="round"/>
<path d="M22.5 15.75V20.25" stroke="#DA0175" stroke-width="1.5" stroke-linecap="round" stroke-linejoin="round"/>
<path d="M24.75 18H20.25" stroke="#DA0175" stroke-width="1.5" stroke-linecap="round" stroke-linejoin="round"/>
<path d="M23.5 10.25H19.25V6" stroke="#DA0175" stroke-width="1.5" stroke-linecap="round" stroke-linejoin="round"/>
<path d="M3.112 33.064C2.57333 33.064 2.104 32.9493 1.704 32.72C1.304 32.4853 0.997333 32.152 0.784 31.72C0.570667 31.2827 0.464 30.768 0.464 30.176C0.464 29.5893 0.570667 29.08 0.784 28.648C0.997333 28.2107 1.304 27.8773 1.704 27.648C2.104 27.4133 2.57333 27.296 3.112 27.296C3.464 27.296 3.79733 27.352 4.112 27.464C4.42667 27.5707 4.70133 27.728 4.936 27.936C5.03733 28.016 5.088 28.1227 5.088 28.256C5.088 28.352 5.06133 28.4347 5.008 28.504C4.95467 28.568 4.89067 28.6 4.816 28.6C4.72533 28.6 4.63733 28.5653 4.552 28.496C4.296 28.304 4.06133 28.1707 3.848 28.096C3.64 28.016 3.40267 27.976 3.136 27.976C2.54933 27.976 2.09867 28.1653 1.784 28.544C1.46933 28.9227 1.312 29.4667 1.312 30.176C1.312 30.8907 1.46933 31.4373 1.784 31.816C2.09867 32.1947 2.54933 32.384 3.136 32.384C3.392 32.384 3.624 32.344 3.832 32.264C4.04533 32.184 4.28533 32.0507 4.552 31.864C4.65867 31.7947 4.74667 31.76 4.816 31.76C4.89067 31.76 4.95467 31.7947 5.008 31.864C5.06133 31.928 5.088 32.008 5.088 32.104C5.088 32.2373 5.03733 32.344 4.936 32.424C4.70133 32.632 4.42667 32.792 4.112 32.904C3.79733 33.0107 3.464 33.064 3.112 33.064ZM7.59194 33.056C7.20794 33.056 6.86927 32.9733 6.57594 32.808C6.28794 32.6427 6.06394 32.408 5.90394 32.104C5.74927 31.7947 5.67194 31.4373 5.67194 31.032C5.67194 30.6213 5.74927 30.264 5.90394 29.96C6.06394 29.6507 6.28794 29.4133 6.57594 29.248C6.86927 29.0827 7.20794 29 7.59194 29C7.97594 29 8.31194 29.0827 8.59994 29.248C8.89327 29.4133 9.11727 29.6507 9.27194 29.96C9.43194 30.264 9.51194 30.6213 9.51194 31.032C9.51194 31.4373 9.43194 31.7947 9.27194 32.104C9.11727 32.408 8.89327 32.6427 8.59994 32.808C8.31194 32.9733 7.97594 33.056 7.59194 33.056ZM7.59194 32.416C7.94927 32.416 8.22127 32.2987 8.40794 32.064C8.59994 31.8293 8.69594 31.4853 8.69594 31.032C8.69594 30.584 8.59994 30.2427 8.40794 30.008C8.21594 29.768 7.94394 29.648 7.59194 29.648C7.23994 29.648 6.96794 29.768 6.77594 30.008C6.58394 30.2427 6.48794 30.584 6.48794 31.032C6.48794 31.4853 6.58127 31.8293 6.76794 32.064C6.95994 32.2987 7.2346 32.416 7.59194 32.416ZM12.5076 29C12.8489 29 13.1502 29.0827 13.4116 29.248C13.6729 29.4133 13.8756 29.648 14.0196 29.952C14.1689 30.256 14.2436 30.6107 14.2436 31.016C14.2436 31.416 14.1689 31.7707 14.0196 32.08C13.8756 32.3893 13.6702 32.6293 13.4036 32.8C13.1422 32.9707 12.8436 33.056 12.5076 33.056C12.2142 33.056 11.9556 32.9947 11.7316 32.872C11.5076 32.744 11.3369 32.5627 11.2196 32.328V32.648C11.2196 32.7653 11.1822 32.8613 11.1076 32.936C11.0382 33.0053 10.9422 33.04 10.8196 33.04C10.6969 33.04 10.5982 33.0053 10.5236 32.936C10.4489 32.8613 10.4116 32.7653 10.4116 32.648V27.704C10.4116 27.5867 10.4489 27.4933 10.5236 27.424C10.6036 27.3547 10.7049 27.32 10.8276 27.32C10.9449 27.32 11.0382 27.3547 11.1076 27.424C11.1822 27.488 11.2196 27.576 11.2196 27.688V29.736C11.3369 29.5013 11.5076 29.32 11.7316 29.192C11.9556 29.064 12.2142 29 12.5076 29ZM12.3156 32.416C12.6622 32.416 12.9316 32.2933 13.1236 32.048C13.3209 31.8027 13.4196 31.4587 13.4196 31.016C13.4196 30.5787 13.3236 30.2427 13.1316 30.008C12.9396 29.768 12.6676 29.648 12.3156 29.648C11.9636 29.648 11.6916 29.768 11.4996 30.008C11.3129 30.248 11.2196 30.5893 11.2196 31.032C11.2196 31.4747 11.3129 31.816 11.4996 32.056C11.6916 32.296 11.9636 32.416 12.3156 32.416ZM17.1861 29.016C17.4421 29 17.5701 29.1093 17.5701 29.344C17.5701 29.4613 17.5408 29.5493 17.4821 29.608C17.4235 29.6667 17.3221 29.7013 17.1781 29.712L16.9381 29.736C16.6021 29.768 16.3515 29.8853 16.1861 30.088C16.0261 30.2907 15.9461 30.536 15.9461 30.824V32.656C15.9461 32.784 15.9088 32.88 15.8341 32.944C15.7595 33.008 15.6635 33.04 15.5461 33.04C15.4288 33.04 15.3301 33.008 15.2501 32.944C15.1755 32.88 15.1381 32.784 15.1381 32.656V29.4C15.1381 29.2773 15.1755 29.184 15.2501 29.12C15.3301 29.0507 15.4288 29.016 15.5461 29.016C15.6528 29.016 15.7408 29.0507 15.8101 29.12C15.8848 29.184 15.9221 29.2747 15.9221 29.392V29.776C16.0288 29.5413 16.1835 29.3627 16.3861 29.24C16.5888 29.1173 16.8181 29.0453 17.0741 29.024L17.1861 29.016ZM19.6844 29C20.2017 29 20.5857 29.1307 20.8364 29.392C21.0924 29.6533 21.2204 30.0507 21.2204 30.584V32.656C21.2204 32.7787 21.1857 32.8747 21.1164 32.944C21.047 33.008 20.951 33.04 20.8284 33.04C20.711 33.04 20.6177 33.0053 20.5484 32.936C20.479 32.8667 20.4444 32.7733 20.4444 32.656V32.36C20.343 32.584 20.191 32.7573 19.9884 32.88C19.791 32.9973 19.559 33.056 19.2924 33.056C19.0364 33.056 18.8017 33.0053 18.5884 32.904C18.3804 32.7973 18.215 32.6533 18.0924 32.472C17.9697 32.2907 17.9084 32.0853 17.9084 31.856C17.903 31.568 17.975 31.344 18.1244 31.184C18.2737 31.0187 18.5164 30.9013 18.8524 30.832C19.1884 30.7573 19.655 30.72 20.2524 30.72H20.4364V30.488C20.4364 30.1893 20.375 29.9733 20.2524 29.84C20.1297 29.7067 19.9324 29.64 19.6604 29.64C19.4737 29.64 19.2977 29.664 19.1324 29.712C18.967 29.76 18.7857 29.8293 18.5884 29.92C18.4444 30 18.343 30.04 18.2844 30.04C18.2044 30.04 18.1377 30.0107 18.0844 29.952C18.0364 29.8933 18.0124 29.8187 18.0124 29.728C18.0124 29.648 18.0337 29.5787 18.0764 29.52C18.1244 29.456 18.199 29.3947 18.3004 29.336C18.487 29.2347 18.7057 29.1547 18.9564 29.096C19.207 29.032 19.4497 29 19.6844 29ZM19.4364 32.456C19.7297 32.456 19.9697 32.3573 20.1564 32.16C20.343 31.9573 20.4364 31.6987 20.4364 31.384V31.176H20.2924C19.8764 31.176 19.5564 31.1947 19.3324 31.232C19.1084 31.2693 18.9484 31.3333 18.8524 31.424C18.7564 31.5093 18.7084 31.6347 18.7084 31.8C18.7084 31.992 18.7777 32.1493 18.9164 32.272C19.055 32.3947 19.2284 32.456 19.4364 32.456ZM24.4296 29C25.363 29 25.8296 29.5253 25.8296 30.576V32.656C25.8296 32.7787 25.7923 32.8747 25.7176 32.944C25.6483 33.008 25.5496 33.04 25.4216 33.04C25.299 33.04 25.2003 33.0053 25.1256 32.936C25.0563 32.8667 25.0216 32.7733 25.0216 32.656V30.616C25.0216 30.2853 24.955 30.0427 24.8216 29.888C24.6936 29.7333 24.491 29.656 24.2136 29.656C23.8883 29.656 23.627 29.7573 23.4296 29.96C23.2323 30.1627 23.1336 30.4347 23.1336 30.776V32.656C23.1336 32.7733 23.0963 32.8667 23.0216 32.936C22.9523 33.0053 22.8563 33.04 22.7336 33.04C22.611 33.04 22.5123 33.0053 22.4376 32.936C22.363 32.8667 22.3256 32.7733 22.3256 32.656V29.4C22.3256 29.288 22.363 29.1973 22.4376 29.128C22.5176 29.0533 22.6163 29.016 22.7336 29.016C22.851 29.016 22.9443 29.0507 23.0136 29.12C23.083 29.1893 23.1176 29.28 23.1176 29.392V29.72C23.2456 29.4853 23.4243 29.3067 23.6536 29.184C23.883 29.0613 24.1416 29 24.4296 29ZM29.823 32.008C29.8977 32.008 29.959 32.04 30.007 32.104C30.055 32.1627 30.079 32.2373 30.079 32.328C30.079 32.4027 30.0577 32.472 30.015 32.536C29.9777 32.5947 29.911 32.656 29.815 32.72C29.6763 32.8107 29.5163 32.8853 29.335 32.944C29.1537 33.0027 28.9697 33.0373 28.783 33.048L28.743 33.352C28.8177 33.336 28.8843 33.328 28.943 33.328C29.1083 33.328 29.247 33.376 29.359 33.472C29.4763 33.568 29.535 33.704 29.535 33.88C29.535 34.0773 29.4497 34.2373 29.279 34.36C29.1083 34.488 28.8657 34.552 28.551 34.552C28.343 34.552 28.159 34.5227 27.999 34.464C27.903 34.4267 27.855 34.36 27.855 34.264C27.855 34.2 27.8763 34.1467 27.919 34.104C27.967 34.0613 28.0283 34.0507 28.103 34.072C28.263 34.1147 28.4123 34.136 28.551 34.136C28.6897 34.136 28.7963 34.1147 28.871 34.072C28.9457 34.0293 28.983 33.9653 28.983 33.88C28.983 33.816 28.9617 33.7653 28.919 33.728C28.8817 33.696 28.8257 33.68 28.751 33.68C28.6977 33.68 28.6257 33.6907 28.535 33.712C28.4443 33.7333 28.3883 33.744 28.367 33.744C28.3243 33.744 28.2843 33.728 28.247 33.696C28.215 33.6693 28.2017 33.632 28.207 33.584L28.271 33.032C27.791 32.9573 27.4097 32.744 27.127 32.392C26.8497 32.04 26.711 31.592 26.711 31.048C26.711 30.6427 26.791 30.2853 26.951 29.976C27.1163 29.6667 27.3457 29.4267 27.639 29.256C27.9323 29.0853 28.2683 29 28.647 29C28.8497 29 29.0523 29.0293 29.255 29.088C29.463 29.1467 29.647 29.2267 29.807 29.328C29.9777 29.4453 30.063 29.5813 30.063 29.736C30.063 29.8267 30.039 29.904 29.991 29.968C29.943 30.0267 29.8817 30.056 29.807 30.056C29.759 30.056 29.711 30.0453 29.663 30.024C29.615 29.9973 29.5537 29.96 29.479 29.912C29.3457 29.8267 29.2203 29.7627 29.103 29.72C28.991 29.672 28.855 29.648 28.695 29.648C28.3323 29.648 28.0497 29.7707 27.847 30.016C27.6497 30.2613 27.551 30.6027 27.551 31.04C27.551 31.4773 27.6497 31.816 27.847 32.056C28.0443 32.2907 28.3243 32.408 28.687 32.408C28.847 32.408 28.9883 32.384 29.111 32.336C29.2337 32.288 29.359 32.224 29.487 32.144C29.5457 32.1067 29.6043 32.0747 29.663 32.048C29.7217 32.0213 29.775 32.008 29.823 32.008ZM32.4422 29C32.9595 29 33.3435 29.1307 33.5942 29.392C33.8502 29.6533 33.9782 30.0507 33.9782 30.584V32.656C33.9782 32.7787 33.9435 32.8747 33.8742 32.944C33.8049 33.008 33.7089 33.04 33.5862 33.04C33.4689 33.04 33.3755 33.0053 33.3062 32.936C33.2369 32.8667 33.2022 32.7733 33.2022 32.656V32.36C33.1009 32.584 32.9489 32.7573 32.7462 32.88C32.5489 32.9973 32.3169 33.056 32.0502 33.056C31.7942 33.056 31.5595 33.0053 31.3462 32.904C31.1382 32.7973 30.9729 32.6533 30.8502 32.472C30.7275 32.2907 30.6662 32.0853 30.6662 31.856C30.6609 31.568 30.7329 31.344 30.8822 31.184C31.0315 31.0187 31.2742 30.9013 31.6102 30.832C31.9462 30.7573 32.4129 30.72 33.0102 30.72H33.1942V30.488C33.1942 30.1893 33.1329 29.9733 33.0102 29.84C32.8875 29.7067 32.6902 29.64 32.4182 29.64C32.2315 29.64 32.0555 29.664 31.8902 29.712C31.7249 29.76 31.5435 29.8293 31.3462 29.92C31.2022 30 31.1009 30.04 31.0422 30.04C30.9622 30.04 30.8955 30.0107 30.8422 29.952C30.7942 29.8933 30.7702 29.8187 30.7702 29.728C30.7702 29.648 30.7915 29.5787 30.8342 29.52C30.8822 29.456 30.9569 29.3947 31.0582 29.336C31.2449 29.2347 31.4635 29.1547 31.7142 29.096C31.9649 29.032 32.2075 29 32.4422 29ZM32.1942 32.456C32.4875 32.456 32.7275 32.3573 32.9142 32.16C33.1009 31.9573 33.1942 31.6987 33.1942 31.384V31.176H33.0502C32.6342 31.176 32.3142 31.1947 32.0902 31.232C31.8662 31.2693 31.7062 31.3333 31.6102 31.424C31.5142 31.5093 31.4662 31.6347 31.4662 31.8C31.4662 31.992 31.5355 32.1493 31.6742 32.272C31.8129 32.3947 31.9862 32.456 32.1942 32.456Z" fill="#DA0175"/>
</svg>
