<svg width="26" height="31" viewBox="0 0 26 31" fill="none" xmlns="http://www.w3.org/2000/svg">
<path d="M6 15.5L10.0339 14.4881L18.8543 5.08495C19.2249 4.68978 19.2249 4.04911 18.8543 3.65394L17.1118 1.79637C16.7412 1.40121 16.1402 1.40121 15.7695 1.79637L6.94915 11.1996L6 15.5Z" stroke="#747488" stroke-width="1.5" stroke-linecap="round" stroke-linejoin="round"/>
<path d="M19.9996 15.2472H14.7793" stroke="#747488" stroke-width="1.5" stroke-linecap="round" stroke-linejoin="round"/>
<path d="M3.112 27.564C2.57333 27.564 2.104 27.4493 1.704 27.22C1.304 26.9853 0.997333 26.652 0.784 26.22C0.570667 25.7827 0.464 25.268 0.464 24.676C0.464 24.0893 0.570667 23.58 0.784 23.148C0.997333 22.7107 1.304 22.3773 1.704 22.148C2.104 21.9133 2.57333 21.796 3.112 21.796C3.464 21.796 3.79733 21.852 4.112 21.964C4.42667 22.0707 4.70133 22.228 4.936 22.436C5.03733 22.516 5.088 22.6227 5.088 22.756C5.088 22.852 5.06133 22.9347 5.008 23.004C4.95467 23.068 4.89067 23.1 4.816 23.1C4.72533 23.1 4.63733 23.0653 4.552 22.996C4.296 22.804 4.06133 22.6707 3.848 22.596C3.64 22.516 3.40267 22.476 3.136 22.476C2.54933 22.476 2.09867 22.6653 1.784 23.044C1.46933 23.4227 1.312 23.9667 1.312 24.676C1.312 25.3907 1.46933 25.9373 1.784 26.316C2.09867 26.6947 2.54933 26.884 3.136 26.884C3.392 26.884 3.624 26.844 3.832 26.764C4.04533 26.684 4.28533 26.5507 4.552 26.364C4.65867 26.2947 4.74667 26.26 4.816 26.26C4.89067 26.26 4.95467 26.2947 5.008 26.364C5.06133 26.428 5.088 26.508 5.088 26.604C5.088 26.7373 5.03733 26.844 4.936 26.924C4.70133 27.132 4.42667 27.292 4.112 27.404C3.79733 27.5107 3.464 27.564 3.112 27.564ZM6.38206 27.54C6.26473 27.54 6.16606 27.508 6.08606 27.444C6.0114 27.38 5.97406 27.284 5.97406 27.156V22.212C5.97406 22.084 6.0114 21.988 6.08606 21.924C6.16606 21.8547 6.26473 21.82 6.38206 21.82C6.4994 21.82 6.5954 21.8547 6.67006 21.924C6.74473 21.988 6.78206 22.084 6.78206 22.212V27.156C6.78206 27.284 6.74473 27.38 6.67006 27.444C6.5954 27.508 6.4994 27.54 6.38206 27.54ZM8.31956 27.54C8.20223 27.54 8.10356 27.508 8.02356 27.444C7.9489 27.38 7.91156 27.284 7.91156 27.156V23.908C7.91156 23.78 7.9489 23.684 8.02356 23.62C8.10356 23.5507 8.20223 23.516 8.31956 23.516C8.4369 23.516 8.5329 23.5507 8.60756 23.62C8.68223 23.684 8.71956 23.78 8.71956 23.908V27.156C8.71956 27.284 8.68223 27.38 8.60756 27.444C8.5329 27.508 8.4369 27.54 8.31956 27.54ZM8.31956 22.732C8.1649 22.732 8.04223 22.6893 7.95156 22.604C7.8609 22.5187 7.81556 22.4067 7.81556 22.268C7.81556 22.1293 7.8609 22.02 7.95156 21.94C8.04223 21.8547 8.1649 21.812 8.31956 21.812C8.4689 21.812 8.5889 21.8547 8.67956 21.94C8.77556 22.02 8.82356 22.1293 8.82356 22.268C8.82356 22.4067 8.77823 22.5187 8.68756 22.604C8.5969 22.6893 8.47423 22.732 8.31956 22.732ZM12.9051 26.516C12.9797 26.516 13.0411 26.5453 13.0891 26.604C13.1371 26.6627 13.1611 26.7373 13.1611 26.828C13.1611 26.9827 13.0651 27.1133 12.8731 27.22C12.6864 27.3267 12.4811 27.4093 12.2571 27.468C12.0384 27.5267 11.8277 27.556 11.6251 27.556C11.0064 27.556 10.5184 27.3773 10.1611 27.02C9.80373 26.6573 9.62506 26.164 9.62506 25.54C9.62506 25.14 9.7024 24.7853 9.85706 24.476C10.0171 24.1667 10.2384 23.9267 10.5211 23.756C10.8091 23.5853 11.1344 23.5 11.4971 23.5C12.0197 23.5 12.4331 23.668 12.7371 24.004C13.0411 24.34 13.1931 24.7933 13.1931 25.364C13.1931 25.5773 13.0971 25.684 12.9051 25.684H10.4331C10.4864 26.5107 10.8837 26.924 11.6251 26.924C11.8224 26.924 11.9931 26.8973 12.1371 26.844C12.2811 26.7907 12.4331 26.7213 12.5931 26.636C12.6091 26.6253 12.6517 26.604 12.7211 26.572C12.7957 26.5347 12.8571 26.516 12.9051 26.516ZM11.5131 24.092C11.2037 24.092 10.9557 24.1907 10.7691 24.388C10.5824 24.5853 10.4704 24.8627 10.4331 25.22H12.4971C12.4811 24.8573 12.3877 24.58 12.2171 24.388C12.0517 24.1907 11.8171 24.092 11.5131 24.092ZM16.1874 23.5C17.1208 23.5 17.5874 24.0253 17.5874 25.076V27.156C17.5874 27.2787 17.5501 27.3747 17.4754 27.444C17.4061 27.508 17.3074 27.54 17.1794 27.54C17.0568 27.54 16.9581 27.5053 16.8834 27.436C16.8141 27.3667 16.7794 27.2733 16.7794 27.156V25.116C16.7794 24.7853 16.7128 24.5427 16.5794 24.388C16.4514 24.2333 16.2488 24.156 15.9714 24.156C15.6461 24.156 15.3848 24.2573 15.1874 24.46C14.9901 24.6627 14.8914 24.9347 14.8914 25.276V27.156C14.8914 27.2733 14.8541 27.3667 14.7794 27.436C14.7101 27.5053 14.6141 27.54 14.4914 27.54C14.3688 27.54 14.2701 27.5053 14.1954 27.436C14.1208 27.3667 14.0834 27.2733 14.0834 27.156V23.9C14.0834 23.788 14.1208 23.6973 14.1954 23.628C14.2754 23.5533 14.3741 23.516 14.4914 23.516C14.6088 23.516 14.7021 23.5507 14.7714 23.62C14.8408 23.6893 14.8754 23.78 14.8754 23.892V24.22C15.0034 23.9853 15.1821 23.8067 15.4114 23.684C15.6408 23.5613 15.8994 23.5 16.1874 23.5ZM20.6048 26.924C20.7221 26.9347 20.8048 26.9667 20.8528 27.02C20.9061 27.068 20.9328 27.1373 20.9328 27.228C20.9328 27.3347 20.8901 27.4173 20.8048 27.476C20.7248 27.5293 20.6048 27.5507 20.4448 27.54L20.2288 27.524C19.7968 27.492 19.4741 27.3613 19.2608 27.132C19.0475 26.8973 18.9408 26.5533 18.9408 26.1V24.22H18.4608C18.2261 24.22 18.1088 24.116 18.1088 23.908C18.1088 23.812 18.1381 23.7373 18.1968 23.684C18.2608 23.6253 18.3488 23.596 18.4608 23.596H18.9408V22.772C18.9408 22.6493 18.9755 22.5533 19.0448 22.484C19.1195 22.4147 19.2181 22.38 19.3408 22.38C19.4635 22.38 19.5621 22.4147 19.6368 22.484C19.7115 22.5533 19.7488 22.6493 19.7488 22.772V23.596H20.5408C20.6528 23.596 20.7381 23.6253 20.7968 23.684C20.8608 23.7373 20.8928 23.812 20.8928 23.908C20.8928 24.0093 20.8608 24.0867 20.7968 24.14C20.7381 24.1933 20.6528 24.22 20.5408 24.22H19.7488V26.156C19.7488 26.4067 19.7995 26.5907 19.9008 26.708C20.0075 26.8253 20.1675 26.892 20.3808 26.908L20.6048 26.924ZM24.5691 26.516C24.6438 26.516 24.7051 26.5453 24.7531 26.604C24.8011 26.6627 24.8251 26.7373 24.8251 26.828C24.8251 26.9827 24.7291 27.1133 24.5371 27.22C24.3505 27.3267 24.1451 27.4093 23.9211 27.468C23.7025 27.5267 23.4918 27.556 23.2891 27.556C22.6705 27.556 22.1825 27.3773 21.8251 27.02C21.4678 26.6573 21.2891 26.164 21.2891 25.54C21.2891 25.14 21.3665 24.7853 21.5211 24.476C21.6811 24.1667 21.9025 23.9267 22.1851 23.756C22.4731 23.5853 22.7985 23.5 23.1611 23.5C23.6838 23.5 24.0971 23.668 24.4011 24.004C24.7051 24.34 24.8571 24.7933 24.8571 25.364C24.8571 25.5773 24.7611 25.684 24.5691 25.684H22.0971C22.1505 26.5107 22.5478 26.924 23.2891 26.924C23.4865 26.924 23.6571 26.8973 23.8011 26.844C23.9451 26.7907 24.0971 26.7213 24.2571 26.636C24.2731 26.6253 24.3158 26.604 24.3851 26.572C24.4598 26.5347 24.5211 26.516 24.5691 26.516ZM23.1771 24.092C22.8678 24.092 22.6198 24.1907 22.4331 24.388C22.2465 24.5853 22.1345 24.8627 22.0971 25.22H24.1611C24.1451 24.8573 24.0518 24.58 23.8811 24.388C23.7158 24.1907 23.4811 24.092 23.1771 24.092Z" fill="#747488"/>
</svg>
