<svg width="59" height="74" viewBox="0 0 59 74" fill="none" xmlns="http://www.w3.org/2000/svg">
<path d="M17.0638 38.5H31.937C33.066 38.5 33.9544 37.5634 33.7294 36.457C33.1084 33.4024 31.0798 28 24.5004 28C17.921 28 15.8925 33.4024 15.2714 36.457C15.0464 37.5634 15.9348 38.5 17.0638 38.5Z" stroke="#343447" stroke-width="1.5" stroke-linecap="round" stroke-linejoin="round"/>
<path d="M37 28C41.1576 28 42.8604 32.2958 43.5478 35.392C43.919 37.064 42.5666 38.5 40.8538 38.5H39" stroke="#343447" stroke-width="1.5" stroke-linecap="round" stroke-linejoin="round"/>
<path d="M24.5 20.5C27.5376 20.5 30 18.0376 30 15C30 11.9624 27.5376 9.5 24.5 9.5C21.4624 9.5 19 11.9624 19 15C19 18.0376 21.4624 20.5 24.5 20.5Z" stroke="#343447" stroke-width="1.5" stroke-linecap="round" stroke-linejoin="round"/>
<path d="M35 20.5C38.0376 20.5 40 18.0376 40 15C40 11.9624 38.0376 9.5 35 9.5" stroke="#343447" stroke-width="1.5" stroke-linecap="round" stroke-linejoin="round"/>
<path d="M6.224 68.128C5.14667 68.128 4.208 67.8987 3.408 67.44C2.608 66.9707 1.99467 66.304 1.568 65.44C1.14133 64.5653 0.928 63.536 0.928 62.352C0.928 61.1787 1.14133 60.16 1.568 59.296C1.99467 58.4213 2.608 57.7547 3.408 57.296C4.208 56.8267 5.14667 56.592 6.224 56.592C6.928 56.592 7.59467 56.704 8.224 56.928C8.85333 57.1413 9.40267 57.456 9.872 57.872C10.0747 58.032 10.176 58.2453 10.176 58.512C10.176 58.704 10.1227 58.8693 10.016 59.008C9.90933 59.136 9.78133 59.2 9.632 59.2C9.45067 59.2 9.27467 59.1307 9.104 58.992C8.592 58.608 8.12267 58.3413 7.696 58.192C7.28 58.032 6.80533 57.952 6.272 57.952C5.09867 57.952 4.19733 58.3307 3.568 59.088C2.93867 59.8453 2.624 60.9333 2.624 62.352C2.624 63.7813 2.93867 64.8747 3.568 65.632C4.19733 66.3893 5.09867 66.768 6.272 66.768C6.784 66.768 7.248 66.688 7.664 66.528C8.09067 66.368 8.57067 66.1013 9.104 65.728C9.31733 65.5893 9.49333 65.52 9.632 65.52C9.78133 65.52 9.90933 65.5893 10.016 65.728C10.1227 65.856 10.176 66.016 10.176 66.208C10.176 66.4747 10.0747 66.688 9.872 66.848C9.40267 67.264 8.85333 67.584 8.224 67.808C7.59467 68.0213 6.928 68.128 6.224 68.128ZM12.7641 68.08C12.5295 68.08 12.3321 68.016 12.1721 67.888C12.0228 67.76 11.9481 67.568 11.9481 67.312V57.424C11.9481 57.168 12.0228 56.976 12.1721 56.848C12.3321 56.7093 12.5295 56.64 12.7641 56.64C12.9988 56.64 13.1908 56.7093 13.3401 56.848C13.4895 56.976 13.5641 57.168 13.5641 57.424V67.312C13.5641 67.568 13.4895 67.76 13.3401 67.888C13.1908 68.016 12.9988 68.08 12.7641 68.08ZM16.6391 68.08C16.4045 68.08 16.2071 68.016 16.0471 67.888C15.8978 67.76 15.8231 67.568 15.8231 67.312V60.816C15.8231 60.56 15.8978 60.368 16.0471 60.24C16.2071 60.1013 16.4045 60.032 16.6391 60.032C16.8738 60.032 17.0658 60.1013 17.2151 60.24C17.3645 60.368 17.4391 60.56 17.4391 60.816V67.312C17.4391 67.568 17.3645 67.76 17.2151 67.888C17.0658 68.016 16.8738 68.08 16.6391 68.08ZM16.6391 58.464C16.3298 58.464 16.0845 58.3787 15.9031 58.208C15.7218 58.0373 15.6311 57.8133 15.6311 57.536C15.6311 57.2587 15.7218 57.04 15.9031 56.88C16.0845 56.7093 16.3298 56.624 16.6391 56.624C16.9378 56.624 17.1778 56.7093 17.3591 56.88C17.5511 57.04 17.6471 57.2587 17.6471 57.536C17.6471 57.8133 17.5565 58.0373 17.3751 58.208C17.1938 58.3787 16.9485 58.464 16.6391 58.464ZM25.8101 66.032C25.9595 66.032 26.0821 66.0907 26.1781 66.208C26.2741 66.3253 26.3221 66.4747 26.3221 66.656C26.3221 66.9653 26.1301 67.2267 25.7461 67.44C25.3728 67.6533 24.9621 67.8187 24.5141 67.936C24.0768 68.0533 23.6555 68.112 23.2501 68.112C22.0128 68.112 21.0368 67.7547 20.3221 67.04C19.6075 66.3147 19.2501 65.328 19.2501 64.08C19.2501 63.28 19.4048 62.5707 19.7141 61.952C20.0341 61.3333 20.4768 60.8533 21.0421 60.512C21.6181 60.1707 22.2688 60 22.9941 60C24.0395 60 24.8661 60.336 25.4741 61.008C26.0821 61.68 26.3861 62.5867 26.3861 63.728C26.3861 64.1547 26.1941 64.368 25.8101 64.368H20.8661C20.9728 66.0213 21.7675 66.848 23.2501 66.848C23.6448 66.848 23.9861 66.7947 24.2741 66.688C24.5621 66.5813 24.8661 66.4427 25.1861 66.272C25.2181 66.2507 25.3035 66.208 25.4421 66.144C25.5915 66.0693 25.7141 66.032 25.8101 66.032ZM23.0261 61.184C22.4075 61.184 21.9115 61.3813 21.5381 61.776C21.1648 62.1707 20.9408 62.7253 20.8661 63.44H24.9941C24.9621 62.7147 24.7755 62.16 24.4341 61.776C24.1035 61.3813 23.6341 61.184 23.0261 61.184ZM32.3749 60C34.2415 60 35.1749 61.0507 35.1749 63.152V67.312C35.1749 67.5573 35.1002 67.7493 34.9509 67.888C34.8122 68.016 34.6149 68.08 34.3589 68.08C34.1135 68.08 33.9162 68.0107 33.7669 67.872C33.6282 67.7333 33.5589 67.5467 33.5589 67.312V63.232C33.5589 62.5707 33.4255 62.0853 33.1589 61.776C32.9029 61.4667 32.4975 61.312 31.9429 61.312C31.2922 61.312 30.7695 61.5147 30.3749 61.92C29.9802 62.3253 29.7829 62.8693 29.7829 63.552V67.312C29.7829 67.5467 29.7082 67.7333 29.5589 67.872C29.4202 68.0107 29.2282 68.08 28.9829 68.08C28.7375 68.08 28.5402 68.0107 28.3909 67.872C28.2415 67.7333 28.1669 67.5467 28.1669 67.312V60.8C28.1669 60.576 28.2415 60.3947 28.3909 60.256C28.5509 60.1067 28.7482 60.032 28.9829 60.032C29.2175 60.032 29.4042 60.1013 29.5429 60.24C29.6815 60.3787 29.7509 60.56 29.7509 60.784V61.44C30.0069 60.9707 30.3642 60.6133 30.8229 60.368C31.2815 60.1227 31.7989 60 32.3749 60ZM41.2096 66.848C41.4443 66.8693 41.6096 66.9333 41.7056 67.04C41.8123 67.136 41.8656 67.2747 41.8656 67.456C41.8656 67.6693 41.7803 67.8347 41.6096 67.952C41.4496 68.0587 41.2096 68.1013 40.8896 68.08L40.4576 68.048C39.5936 67.984 38.9483 67.7227 38.5216 67.264C38.095 66.7947 37.8816 66.1067 37.8816 65.2V61.44H36.9216C36.4523 61.44 36.2176 61.232 36.2176 60.816C36.2176 60.624 36.2763 60.4747 36.3936 60.368C36.5216 60.2507 36.6976 60.192 36.9216 60.192H37.8816V58.544C37.8816 58.2987 37.951 58.1067 38.0896 57.968C38.239 57.8293 38.4363 57.76 38.6816 57.76C38.927 57.76 39.1243 57.8293 39.2736 57.968C39.423 58.1067 39.4976 58.2987 39.4976 58.544V60.192H41.0816C41.3056 60.192 41.4763 60.2507 41.5936 60.368C41.7216 60.4747 41.7856 60.624 41.7856 60.816C41.7856 61.0187 41.7216 61.1733 41.5936 61.28C41.4763 61.3867 41.3056 61.44 41.0816 61.44H39.4976V65.312C39.4976 65.8133 39.599 66.1813 39.8016 66.416C40.015 66.6507 40.335 66.784 40.7616 66.816L41.2096 66.848ZM49.1383 66.032C49.2876 66.032 49.4103 66.0907 49.5063 66.208C49.6023 66.3253 49.6503 66.4747 49.6503 66.656C49.6503 66.9653 49.4583 67.2267 49.0743 67.44C48.7009 67.6533 48.2903 67.8187 47.8423 67.936C47.4049 68.0533 46.9836 68.112 46.5783 68.112C45.3409 68.112 44.3649 67.7547 43.6503 67.04C42.9356 66.3147 42.5783 65.328 42.5783 64.08C42.5783 63.28 42.7329 62.5707 43.0423 61.952C43.3623 61.3333 43.8049 60.8533 44.3703 60.512C44.9463 60.1707 45.5969 60 46.3223 60C47.3676 60 48.1943 60.336 48.8023 61.008C49.4103 61.68 49.7143 62.5867 49.7143 63.728C49.7143 64.1547 49.5223 64.368 49.1383 64.368H44.1943C44.3009 66.0213 45.0956 66.848 46.5783 66.848C46.9729 66.848 47.3143 66.7947 47.6023 66.688C47.8903 66.5813 48.1943 66.4427 48.5143 66.272C48.5463 66.2507 48.6316 66.208 48.7703 66.144C48.9196 66.0693 49.0423 66.032 49.1383 66.032ZM46.3543 61.184C45.7356 61.184 45.2396 61.3813 44.8663 61.776C44.4929 62.1707 44.2689 62.7253 44.1943 63.44H48.3223C48.2903 62.7147 48.1036 62.16 47.7623 61.776C47.4316 61.3813 46.9623 61.184 46.3543 61.184ZM54.215 68.112C53.127 68.112 52.2363 67.888 51.543 67.44C51.351 67.3227 51.2123 67.2 51.127 67.072C51.0523 66.944 51.015 66.8 51.015 66.64C51.015 66.4693 51.063 66.3253 51.159 66.208C51.255 66.0907 51.3777 66.032 51.527 66.032C51.6657 66.032 51.8843 66.1173 52.183 66.288C52.503 66.4587 52.8123 66.5973 53.111 66.704C53.4203 66.8107 53.8043 66.864 54.263 66.864C54.775 66.864 55.175 66.7733 55.463 66.592C55.751 66.4107 55.895 66.1547 55.895 65.824C55.895 65.6107 55.8363 65.44 55.719 65.312C55.6123 65.184 55.4203 65.072 55.143 64.976C54.8657 64.8693 54.455 64.7573 53.911 64.64C52.9723 64.4373 52.295 64.1653 51.879 63.824C51.4737 63.472 51.271 62.9973 51.271 62.4C51.271 61.9413 51.4043 61.5307 51.671 61.168C51.9377 60.7947 52.3057 60.5067 52.775 60.304C53.2443 60.1013 53.7777 60 54.375 60C54.8017 60 55.2177 60.0587 55.623 60.176C56.0283 60.2827 56.3857 60.4427 56.695 60.656C57.047 60.8907 57.223 61.1627 57.223 61.472C57.223 61.6427 57.1697 61.7867 57.063 61.904C56.967 62.0213 56.8497 62.08 56.711 62.08C56.615 62.08 56.519 62.0587 56.423 62.016C56.327 61.9733 56.199 61.904 56.039 61.808C55.751 61.6373 55.479 61.504 55.223 61.408C54.9777 61.312 54.6683 61.264 54.295 61.264C53.847 61.264 53.4843 61.36 53.207 61.552C52.9403 61.744 52.807 62.0053 52.807 62.336C52.807 62.6347 52.9297 62.8693 53.175 63.04C53.431 63.2 53.9057 63.3547 54.599 63.504C55.3137 63.6533 55.8737 63.824 56.279 64.016C56.6843 64.208 56.9723 64.448 57.143 64.736C57.3243 65.0133 57.415 65.3707 57.415 65.808C57.415 66.5013 57.1217 67.0613 56.535 67.488C55.959 67.904 55.1857 68.112 54.215 68.112Z" fill="#343447"/>
</svg>
