<svg width="49" height="74" viewBox="0 0 49 74" fill="none" xmlns="http://www.w3.org/2000/svg">
<path d="M14 38.5004H34.9999C37.2091 38.5004 38.9999 36.7096 38.9999 34.5004V19.5005L24.4999 9.50049L10 19.5005V34.5004C10 36.7096 11.7909 38.5004 14 38.5004Z" stroke="#DA0175" stroke-width="1.5" stroke-linecap="round" stroke-linejoin="round"/>
<path d="M20 31.4985C20 29.2893 21.7909 27.4985 23.9999 27.4985H24.9999C27.2091 27.4985 28.9999 29.2893 28.9999 31.4985V38.4985H20V31.4985Z" stroke="#DA0175" stroke-width="1.5" stroke-linecap="round" stroke-linejoin="round"/>
<path d="M12.564 56.64C12.8093 56.64 13.0067 56.72 13.156 56.88C13.3053 57.0293 13.38 57.2267 13.38 57.472V67.248C13.38 67.4933 13.3053 67.696 13.156 67.856C13.0067 68.0053 12.8093 68.08 12.564 68.08C12.3187 68.08 12.1213 68.0053 11.972 67.856C11.8227 67.7067 11.748 67.504 11.748 67.248V62.944H5.444V67.248C5.444 67.4933 5.36933 67.696 5.22 67.856C5.07067 68.0053 4.87333 68.08 4.628 68.08C4.38267 68.08 4.18533 68.0053 4.036 67.856C3.88667 67.7067 3.812 67.504 3.812 67.248V57.472C3.812 57.2267 3.88667 57.0293 4.036 56.88C4.18533 56.72 4.38267 56.64 4.628 56.64C4.87333 56.64 5.07067 56.72 5.22 56.88C5.36933 57.0293 5.444 57.2267 5.444 57.472V61.6H11.748V57.472C11.748 57.2267 11.8227 57.0293 11.972 56.88C12.1213 56.72 12.3187 56.64 12.564 56.64ZM19.1995 68.112C18.4315 68.112 17.7542 67.9467 17.1675 67.616C16.5915 67.2853 16.1435 66.816 15.8235 66.208C15.5142 65.5893 15.3595 64.8747 15.3595 64.064C15.3595 63.2427 15.5142 62.528 15.8235 61.92C16.1435 61.3013 16.5915 60.8267 17.1675 60.496C17.7542 60.1653 18.4315 60 19.1995 60C19.9675 60 20.6395 60.1653 21.2155 60.496C21.8022 60.8267 22.2502 61.3013 22.5595 61.92C22.8795 62.528 23.0395 63.2427 23.0395 64.064C23.0395 64.8747 22.8795 65.5893 22.5595 66.208C22.2502 66.816 21.8022 67.2853 21.2155 67.616C20.6395 67.9467 19.9675 68.112 19.1995 68.112ZM19.1995 66.832C19.9142 66.832 20.4582 66.5973 20.8315 66.128C21.2155 65.6587 21.4075 64.9707 21.4075 64.064C21.4075 63.168 21.2155 62.4853 20.8315 62.016C20.4475 61.536 19.9035 61.296 19.1995 61.296C18.4955 61.296 17.9515 61.536 17.5675 62.016C17.1835 62.4853 16.9915 63.168 16.9915 64.064C16.9915 64.9707 17.1782 65.6587 17.5515 66.128C17.9355 66.5973 18.4848 66.832 19.1995 66.832ZM33.7988 60C35.5481 60 36.4228 61.0507 36.4228 63.152V67.312C36.4228 67.5573 36.3481 67.7493 36.1988 67.888C36.0494 68.016 35.8521 68.08 35.6068 68.08C35.3721 68.08 35.1801 68.016 35.0308 67.888C34.8814 67.7493 34.8068 67.5573 34.8068 67.312V63.168C34.8068 62.5173 34.6894 62.048 34.4548 61.76C34.2201 61.4613 33.8521 61.312 33.3508 61.312C32.7641 61.312 32.3001 61.5147 31.9588 61.92C31.6174 62.3147 31.4468 62.8587 31.4468 63.552V67.312C31.4468 67.5573 31.3721 67.7493 31.2228 67.888C31.0734 68.016 30.8761 68.08 30.6308 68.08C30.3961 68.08 30.2041 68.016 30.0548 67.888C29.9054 67.7493 29.8308 67.5573 29.8308 67.312V63.168C29.8308 62.5173 29.7134 62.048 29.4788 61.76C29.2441 61.4613 28.8761 61.312 28.3748 61.312C27.7881 61.312 27.3188 61.5147 26.9668 61.92C26.6254 62.3147 26.4548 62.8587 26.4548 63.552V67.312C26.4548 67.5573 26.3801 67.7493 26.2308 67.888C26.0814 68.016 25.8894 68.08 25.6548 68.08C25.4201 68.08 25.2228 68.016 25.0628 67.888C24.9134 67.7493 24.8388 67.5573 24.8388 67.312V60.8C24.8388 60.5653 24.9188 60.3787 25.0788 60.24C25.2388 60.1013 25.4308 60.032 25.6548 60.032C25.8788 60.032 26.0601 60.1013 26.1988 60.24C26.3481 60.368 26.4228 60.5493 26.4228 60.784V61.376C26.6574 60.928 26.9828 60.5867 27.3988 60.352C27.8148 60.1173 28.2948 60 28.8388 60C29.4361 60 29.9268 60.1227 30.3108 60.368C30.7054 60.6133 30.9988 60.992 31.1908 61.504C31.4254 61.0453 31.7721 60.6827 32.2308 60.416C32.6894 60.1387 33.2121 60 33.7988 60ZM44.7476 66.032C44.897 66.032 45.0196 66.0907 45.1156 66.208C45.2116 66.3253 45.2596 66.4747 45.2596 66.656C45.2596 66.9653 45.0676 67.2267 44.6836 67.44C44.3103 67.6533 43.8996 67.8187 43.4516 67.936C43.0143 68.0533 42.593 68.112 42.1876 68.112C40.9503 68.112 39.9743 67.7547 39.2596 67.04C38.545 66.3147 38.1876 65.328 38.1876 64.08C38.1876 63.28 38.3423 62.5707 38.6516 61.952C38.9716 61.3333 39.4143 60.8533 39.9796 60.512C40.5556 60.1707 41.2063 60 41.9316 60C42.977 60 43.8036 60.336 44.4116 61.008C45.0196 61.68 45.3236 62.5867 45.3236 63.728C45.3236 64.1547 45.1316 64.368 44.7476 64.368H39.8036C39.9103 66.0213 40.705 66.848 42.1876 66.848C42.5823 66.848 42.9236 66.7947 43.2116 66.688C43.4996 66.5813 43.8036 66.4427 44.1236 66.272C44.1556 66.2507 44.241 66.208 44.3796 66.144C44.529 66.0693 44.6516 66.032 44.7476 66.032ZM41.9636 61.184C41.345 61.184 40.849 61.3813 40.4756 61.776C40.1023 62.1707 39.8783 62.7253 39.8036 63.44H43.9316C43.8996 62.7147 43.713 62.16 43.3716 61.776C43.041 61.3813 42.5716 61.184 41.9636 61.184Z" fill="#DA0175"/>
</svg>
